REM DIRINDEX 1\2\3,1\2\4,1\2\5,1\2\6
REM DIRNAME folder01,folder02,folder03,folder04,folder05,folder06
TITLE ""
FILE "132 132.mp3" MP3
  TRACK 01 AUDIO
    TITLE "0:"
    INDEX 01 00:00:00
  TRACK 02 AUDIO
    TITLE "3:cjc157_4940"
    INDEX 01 00:00:11
  TRACK 03 AUDIO
    TITLE "0:"
    INDEX 01 00:01:58
  TRACK 04 AUDIO
    TITLE "4:cjc157_4941"
    INDEX 01 00:02:28
  TRACK 05 AUDIO
    TITLE "0:"
    INDEX 01 00:03:37
  TRACK 06 AUDIO
    TITLE "5:cjc157_4942"
    INDEX 01 00:04:11
  TRACK 07 AUDIO
    TITLE "0:"
    INDEX 01 00:05:71
  TRACK 08 AUDIO
    TITLE "5:cjc157_4943"
    INDEX 01 00:06:45
  TRACK 09 AUDIO
    TITLE "0:"
    INDEX 01 00:09:06
  TRACK 10 AUDIO
    TITLE "3:cjc157_4944"
    INDEX 01 00:09:49
  TRACK 11 AUDIO
    TITLE "0:"
    INDEX 01 00:10:72
  TRACK 12 AUDIO
    TITLE "4:cjc157_4945"
    INDEX 01 00:11:44
  TRACK 13 AUDIO
    TITLE "0:"
    INDEX 01 00:13:00
  TRACK 14 AUDIO
    TITLE "5:cjc157_4946"
    INDEX 01 00:13:45
  TRACK 15 AUDIO
    TITLE "0:"
    INDEX 01 00:17:61
  TRACK 16 AUDIO
    TITLE "5:cjc157_4947"
    INDEX 01 00:18:33
  TRACK 17 AUDIO
    TITLE "0:"
    INDEX 01 00:20:47
  TRACK 18 AUDIO
    TITLE "3:cjc157_4948"
    INDEX 01 00:21:15
  TRACK 19 AUDIO
    TITLE "0:"
    INDEX 01 00:22:54
  TRACK 20 AUDIO
    TITLE "4:cjc157_4949"
    INDEX 01 00:23:24
  TRACK 21 AUDIO
    TITLE "0:"
    INDEX 01 00:24:39
  TRACK 22 AUDIO
    TITLE "5:cjc157_4950"
    INDEX 01 00:25:13
  TRACK 23 AUDIO
    TITLE "0:"
    INDEX 01 00:26:73
  TRACK 24 AUDIO
    TITLE "3:cjc157_4951"
    INDEX 01 00:27:49
  TRACK 25 AUDIO
    TITLE "0:"
    INDEX 01 00:29:01
  TRACK 26 AUDIO
    TITLE "4:cjc157_4952"
    INDEX 01 00:29:50
  TRACK 27 AUDIO
    TITLE "0:"
    INDEX 01 00:30:69
  TRACK 28 AUDIO
    TITLE "5:cjc157_4953"
    INDEX 01 00:31:39
  TRACK 29 AUDIO
    TITLE "0:"
    INDEX 01 00:35:25
  TRACK 30 AUDIO
    TITLE "5:cjc157_4954"
    INDEX 01 00:35:70
  TRACK 31 AUDIO
    TITLE "0:"
    INDEX 01 00:38:49
  TRACK 32 AUDIO
    TITLE "3:cjc157_4955"
    INDEX 01 00:39:17
  TRACK 33 AUDIO
    TITLE "0:"
    INDEX 01 00:40:54
  TRACK 34 AUDIO
    TITLE "4:cjc157_4956"
    INDEX 01 00:41:26
  TRACK 35 AUDIO
    TITLE "0:"
    INDEX 01 00:42:31
  TRACK 36 AUDIO
    TITLE "5:cjc157_4957"
    INDEX 01 00:43:03
  TRACK 37 AUDIO
    TITLE "0:"
    INDEX 01 00:45:43
  TRACK 38 AUDIO
    TITLE "3:cjc157_4958"
    INDEX 01 00:46:27
  TRACK 39 AUDIO
    TITLE "0:"
    INDEX 01 00:47:74
  TRACK 40 AUDIO
    TITLE "4:cjc157_4959"
    INDEX 01 00:48:42
  TRACK 41 AUDIO
    TITLE "0:"
    INDEX 01 00:49:59
  TRACK 42 AUDIO
    TITLE "5:cjc157_4960"
    INDEX 01 00:50:29
  TRACK 43 AUDIO
    TITLE "0:"
    INDEX 01 00:52:67
  TRACK 44 AUDIO
    TITLE "3:cjc157_4961"
    INDEX 01 00:53:41
  TRACK 45 AUDIO
    TITLE "0:"
    INDEX 01 00:54:56
  TRACK 46 AUDIO
    TITLE "4:cjc157_4962"
    INDEX 01 00:55:28
  TRACK 47 AUDIO
    TITLE "0:"
    INDEX 01 00:56:49
  TRACK 48 AUDIO
    TITLE "5:cjc157_4963"
    INDEX 01 00:57:17
  TRACK 49 AUDIO
    TITLE "0:"
    INDEX 01 00:59:08
  TRACK 50 AUDIO
    TITLE "5:cjc157_4964"
    INDEX 01 00:59:55
  TRACK 51 AUDIO
    TITLE "0:"
    INDEX 01 01:01:64
  TRACK 52 AUDIO
    TITLE "3:cjc157_4965"
    INDEX 01 01:02:36
  TRACK 53 AUDIO
    TITLE "0:"
    INDEX 01 01:03:67
  TRACK 54 AUDIO
    TITLE "4:cjc157_4966"
    INDEX 01 01:04:41
  TRACK 55 AUDIO
    TITLE "0:"
    INDEX 01 01:05:62
  TRACK 56 AUDIO
    TITLE "5:cjc157_4967"
    INDEX 01 01:06:30
  TRACK 57 AUDIO
    TITLE "0:"
    INDEX 01 01:08:48
  TRACK 58 AUDIO
    TITLE "5:cjc157_4968"
    INDEX 01 01:09:18
  TRACK 59 AUDIO
    TITLE "0:"
    INDEX 01 01:11:05
  TRACK 60 AUDIO
    TITLE "3:cjc157_4969"
    INDEX 01 01:11:51
  TRACK 61 AUDIO
    TITLE "0:"
    INDEX 01 01:12:60
  TRACK 62 AUDIO
    TITLE "4:cjc157_4970"
    INDEX 01 01:13:38
  TRACK 63 AUDIO
    TITLE "0:"
    INDEX 01 01:14:45
  TRACK 64 AUDIO
    TITLE "5:cjc157_4971"
    INDEX 01 01:15:15
  TRACK 65 AUDIO
    TITLE "0:"
    INDEX 01 01:17:08
  TRACK 66 AUDIO
    TITLE "3:cjc157_4972"
    INDEX 01 01:17:49
  TRACK 67 AUDIO
    TITLE "0:"
    INDEX 01 01:18:74
  TRACK 68 AUDIO
    TITLE "4:cjc157_4973"
    INDEX 01 01:19:44
  TRACK 69 AUDIO
    TITLE "0:"
    INDEX 01 01:20:49
  TRACK 70 AUDIO
    TITLE "5:cjc157_4974"
    INDEX 01 01:21:23
  TRACK 71 AUDIO
    TITLE "0:"
    INDEX 01 01:23:11
  TRACK 72 AUDIO
    TITLE "5:cjc157_4975"
    INDEX 01 01:23:62
  TRACK 73 AUDIO
    TITLE "0:"
    INDEX 01 01:25:13
